<svg aria-roledescription="er" viewBox="0 0 659.8319091796875 501" style="max-width: 659.832px; background-color: white;" xmlns:xlink="http://www.w3.org/1999/xlink" xmlns="http://www.w3.org/2000/svg" width="100%" id="mermaid-0"><style>#mermaid-0{font-family:"trebuchet ms",verdana,arial,sans-serif;font-size:16px;fill:#000000;}#mermaid-0 .error-icon{fill:#552222;}#mermaid-0 .error-text{fill:#552222;stroke:#552222;}#mermaid-0 .edge-thickness-normal{stroke-width:2px;}#mermaid-0 .edge-thickness-thick{stroke-width:3.5px;}#mermaid-0 .edge-pattern-solid{stroke-dasharray:0;}#mermaid-0 .edge-pattern-dashed{stroke-dasharray:3;}#mermaid-0 .edge-pattern-dotted{stroke-dasharray:2;}#mermaid-0 .marker{fill:#000000;stroke:#000000;}#mermaid-0 .marker.cross{stroke:#000000;}#mermaid-0 svg{font-family:"trebuchet ms",verdana,arial,sans-serif;font-size:16px;}#mermaid-0 .entityBox{fill:#cde498;stroke:#13540c;}#mermaid-0 .attributeBoxOdd{fill:#ffffff;stroke:#13540c;}#mermaid-0 .attributeBoxEven{fill:#f2f2f2;stroke:#13540c;}#mermaid-0 .relationshipLabelBox{fill:hsl(78.1578947368, 58.4615384615%, 84.5098039216%);opacity:0.7;background-color:hsl(78.1578947368, 58.4615384615%, 84.5098039216%);}#mermaid-0 .relationshipLabelBox rect{opacity:0.5;}#mermaid-0 .relationshipLine{stroke:#000000;}#mermaid-0 .entityTitleText{text-anchor:middle;font-size:18px;fill:#000000;}#mermaid-0 :root{--mermaid-font-family:"trebuchet ms",verdana,arial,sans-serif;}</style><g/><defs><marker orient="auto" markerHeight="18" markerWidth="18" refY="9" refX="0" id="ONLY_ONE_START"><path d="M9,0 L9,18 M15,0 L15,18" fill="none" stroke="gray"/></marker></defs><defs><marker orient="auto" markerHeight="18" markerWidth="18" refY="9" refX="18" id="ONLY_ONE_END"><path d="M3,0 L3,18 M9,0 L9,18" fill="none" stroke="gray"/></marker></defs><defs><marker orient="auto" markerHeight="18" markerWidth="30" refY="9" refX="0" id="ZERO_OR_ONE_START"><circle r="6" cy="9" cx="21" fill="white" stroke="gray"/><path d="M9,0 L9,18" fill="none" stroke="gray"/></marker></defs><defs><marker orient="auto" markerHeight="18" markerWidth="30" refY="9" refX="30" id="ZERO_OR_ONE_END"><circle r="6" cy="9" cx="9" fill="white" stroke="gray"/><path d="M21,0 L21,18" fill="none" stroke="gray"/></marker></defs><defs><marker orient="auto" markerHeight="36" markerWidth="45" refY="18" refX="18" id="ONE_OR_MORE_START"><path d="M0,18 Q 18,0 36,18 Q 18,36 0,18 M42,9 L42,27" fill="none" stroke="gray"/></marker></defs><defs><marker orient="auto" markerHeight="36" markerWidth="45" refY="18" refX="27" id="ONE_OR_MORE_END"><path d="M3,9 L3,27 M9,18 Q27,0 45,18 Q27,36 9,18" fill="none" stroke="gray"/></marker></defs><defs><marker orient="auto" markerHeight="36" markerWidth="57" refY="18" refX="18" id="ZERO_OR_MORE_START"><circle r="6" cy="18" cx="48" fill="white" stroke="gray"/><path d="M0,18 Q18,0 36,18 Q18,36 0,18" fill="none" stroke="gray"/></marker></defs><defs><marker orient="auto" markerHeight="36" markerWidth="57" refY="18" refX="39" id="ZERO_OR_MORE_END"><circle r="6" cy="18" cx="9" fill="white" stroke="gray"/><path d="M21,18 Q39,0 57,18 Q39,36 21,18" fill="none" stroke="gray"/></marker></defs><path style="stroke: gray; fill: none;" marker-start="url(#ZERO_OR_ONE_START)" marker-end="url(#ONLY_ONE_END)" d="M111.3212890625,315L111.3212890625,323.3333333333333C111.3212890625,331.6666666666667,111.3212890625,348.3333333333333,111.3212890625,365C111.3212890625,381.6666666666667,111.3212890625,398.3333333333333,111.3212890625,406.6666666666667L111.3212890625,415" class="er relationshipLine"/><path style="stroke: gray; fill: none;" marker-start="url(#ZERO_OR_MORE_START)" marker-end="url(#ONLY_ONE_END)" d="M589.8319396972656,86L589.8319396972656,94.33333333333333C589.8319396972656,102.66666666666667,589.8319396972656,119.33333333333333,589.8319396972656,141.25C589.8319396972656,163.16666666666666,589.8319396972656,190.33333333333334,589.8319396972656,203.91666666666666L589.8319396972656,217.5" class="er relationshipLine"/><path style="stroke: gray; fill: none;" marker-start="url(#ZERO_OR_MORE_START)" marker-end="url(#ONLY_ONE_END)" d="M189.6092317879918,86L176.56124133374317,94.33333333333333C163.51325087949454,102.66666666666667,137.41726997099727,119.33333333333333,124.36927951674863,136C111.3212890625,152.66666666666666,111.3212890625,169.33333333333334,111.3212890625,177.66666666666666L111.3212890625,186" class="er relationshipLine"/><path style="stroke: gray; fill: none;" marker-start="url(#ZERO_OR_MORE_START)" marker-end="url(#ONLY_ONE_END)" d="M292.949316185641,86L305.99730663988964,94.33333333333333C319.0452970941383,102.66666666666667,345.14127800263554,119.33333333333333,358.1892684568841,137.75C371.2372589111328,156.16666666666666,371.2372589111328,176.33333333333334,371.2372589111328,186.41666666666666L371.2372589111328,196.5" class="er relationshipLine"/><g transform="translate(20,186 )" id="entity-courses-e68a30cc-da42-4722-8e83-5dd09a293439"><rect height="129" width="182.642578125" y="0" x="0" class="er entityBox"/><text style="dominant-baseline: middle; text-anchor: middle; font-size: 12px;" transform="translate(91.3212890625,12)" y="0" x="0" id="text-entity-courses-e68a30cc-da42-4722-8e83-5dd09a293439" class="er entityLabel">courses</text><rect height="21" width="54.113128662109375" y="24" x="0" class="er attributeBoxOdd"/><text style="dominant-baseline: middle; font-size: 10.2px;" transform="translate(5,34.5)" y="0" x="0" id="text-entity-courses-e68a30cc-da42-4722-8e83-5dd09a293439-attr-1-type" class="er entityLabel">String</text><rect height="21" width="59.28125" y="24" x="54.113128662109375" class="er attributeBoxOdd"/><text style="dominant-baseline: middle; font-size: 10.2px;" transform="translate(59.113128662109375,34.5)" y="0" x="0" id="text-entity-courses-e68a30cc-da42-4722-8e83-5dd09a293439-attr-1-name" class="er entityLabel">id</text><rect height="21" width="23.79498291015625" y="24" x="113.39437866210938" class="er attributeBoxOdd"/><text style="dominant-baseline: middle; font-size: 10.2px;" transform="translate(118.39437866210938,34.5)" y="0" x="0" id="text-entity-courses-e68a30cc-da42-4722-8e83-5dd09a293439-attr-1-key" class="er entityLabel">PK</text><rect height="21" width="45.453216552734375" y="24" x="137.18936157226562" class="er attributeBoxOdd"/><text style="dominant-baseline: middle; font-size: 10.2px;" transform="translate(142.18936157226562,34.5)" y="0" x="0" id="text-entity-courses-e68a30cc-da42-4722-8e83-5dd09a293439-attr-1-comment" class="er entityLabel"/><rect height="21" width="54.113128662109375" y="45" x="0" class="er attributeBoxEven"/><text style="dominant-baseline: middle; font-size: 10.2px;" transform="translate(5,55.5)" y="0" x="0" id="text-entity-courses-e68a30cc-da42-4722-8e83-5dd09a293439-attr-2-type" class="er entityLabel">String</text><rect height="21" width="59.28125" y="45" x="54.113128662109375" class="er attributeBoxEven"/><text style="dominant-baseline: middle; font-size: 10.2px;" transform="translate(59.113128662109375,55.5)" y="0" x="0" id="text-entity-courses-e68a30cc-da42-4722-8e83-5dd09a293439-attr-2-name" class="er entityLabel">name</text><rect height="21" width="23.79498291015625" y="45" x="113.39437866210938" class="er attributeBoxEven"/><text style="dominant-baseline: middle; font-size: 10.2px;" transform="translate(118.39437866210938,55.5)" y="0" x="0" id="text-entity-courses-e68a30cc-da42-4722-8e83-5dd09a293439-attr-2-key" class="er entityLabel"/><rect height="21" width="45.453216552734375" y="45" x="137.18936157226562" class="er attributeBoxEven"/><text style="dominant-baseline: middle; font-size: 10.2px;" transform="translate(142.18936157226562,55.5)" y="0" x="0" id="text-entity-courses-e68a30cc-da42-4722-8e83-5dd09a293439-attr-2-comment" class="er entityLabel"/><rect height="21" width="54.113128662109375" y="66" x="0" class="er attributeBoxOdd"/><text style="dominant-baseline: middle; font-size: 10.2px;" transform="translate(5,76.5)" y="0" x="0" id="text-entity-courses-e68a30cc-da42-4722-8e83-5dd09a293439-attr-3-type" class="er entityLabel">String</text><rect height="21" width="59.28125" y="66" x="54.113128662109375" class="er attributeBoxOdd"/><text style="dominant-baseline: middle; font-size: 10.2px;" transform="translate(59.113128662109375,76.5)" y="0" x="0" id="text-entity-courses-e68a30cc-da42-4722-8e83-5dd09a293439-attr-3-name" class="er entityLabel">description</text><rect height="21" width="23.79498291015625" y="66" x="113.39437866210938" class="er attributeBoxOdd"/><text style="dominant-baseline: middle; font-size: 10.2px;" transform="translate(118.39437866210938,76.5)" y="0" x="0" id="text-entity-courses-e68a30cc-da42-4722-8e83-5dd09a293439-attr-3-key" class="er entityLabel"/><rect height="21" width="45.453216552734375" y="66" x="137.18936157226562" class="er attributeBoxOdd"/><text style="dominant-baseline: middle; font-size: 10.2px;" transform="translate(142.18936157226562,76.5)" y="0" x="0" id="text-entity-courses-e68a30cc-da42-4722-8e83-5dd09a293439-attr-3-comment" class="er entityLabel">nullable</text><rect height="21" width="54.113128662109375" y="87" x="0" class="er attributeBoxEven"/><text style="dominant-baseline: middle; font-size: 10.2px;" transform="translate(5,97.5)" y="0" x="0" id="text-entity-courses-e68a30cc-da42-4722-8e83-5dd09a293439-attr-4-type" class="er entityLabel">Int</text><rect height="21" width="59.28125" y="87" x="54.113128662109375" class="er attributeBoxEven"/><text style="dominant-baseline: middle; font-size: 10.2px;" transform="translate(59.113128662109375,97.5)" y="0" x="0" id="text-entity-courses-e68a30cc-da42-4722-8e83-5dd09a293439-attr-4-name" class="er entityLabel">duration</text><rect height="21" width="23.79498291015625" y="87" x="113.39437866210938" class="er attributeBoxEven"/><text style="dominant-baseline: middle; font-size: 10.2px;" transform="translate(118.39437866210938,97.5)" y="0" x="0" id="text-entity-courses-e68a30cc-da42-4722-8e83-5dd09a293439-attr-4-key" class="er entityLabel"/><rect height="21" width="45.453216552734375" y="87" x="137.18936157226562" class="er attributeBoxEven"/><text style="dominant-baseline: middle; font-size: 10.2px;" transform="translate(142.18936157226562,97.5)" y="0" x="0" id="text-entity-courses-e68a30cc-da42-4722-8e83-5dd09a293439-attr-4-comment" class="er entityLabel"/><rect height="21" width="54.113128662109375" y="108" x="0" class="er attributeBoxOdd"/><text style="dominant-baseline: middle; font-size: 10.2px;" transform="translate(5,118.5)" y="0" x="0" id="text-entity-courses-e68a30cc-da42-4722-8e83-5dd09a293439-attr-5-type" class="er entityLabel">DateTime</text><rect height="21" width="59.28125" y="108" x="54.113128662109375" class="er attributeBoxOdd"/><text style="dominant-baseline: middle; font-size: 10.2px;" transform="translate(59.113128662109375,118.5)" y="0" x="0" id="text-entity-courses-e68a30cc-da42-4722-8e83-5dd09a293439-attr-5-name" class="er entityLabel">created_at</text><rect height="21" width="23.79498291015625" y="108" x="113.39437866210938" class="er attributeBoxOdd"/><text style="dominant-baseline: middle; font-size: 10.2px;" transform="translate(118.39437866210938,118.5)" y="0" x="0" id="text-entity-courses-e68a30cc-da42-4722-8e83-5dd09a293439-attr-5-key" class="er entityLabel"/><rect height="21" width="45.453216552734375" y="108" x="137.18936157226562" class="er attributeBoxOdd"/><text style="dominant-baseline: middle; font-size: 10.2px;" transform="translate(142.18936157226562,118.5)" y="0" x="0" id="text-entity-courses-e68a30cc-da42-4722-8e83-5dd09a293439-attr-5-comment" class="er entityLabel"/></g><g transform="translate(61.3212890625,415 )" id="entity-teachers-3e01bf78-e991-4682-a740-ce4e43138584"><rect height="66" width="100" y="0" x="0" class="er entityBox"/><text style="dominant-baseline: middle; text-anchor: middle; font-size: 12px;" transform="translate(50,12)" y="0" x="0" id="text-entity-teachers-3e01bf78-e991-4682-a740-ce4e43138584" class="er entityLabel">teachers</text><rect height="21" width="38.09375" y="24" x="0" class="er attributeBoxOdd"/><text style="dominant-baseline: middle; font-size: 10.2px;" transform="translate(5,34.5)" y="0" x="0" id="text-entity-teachers-3e01bf78-e991-4682-a740-ce4e43138584-attr-1-type" class="er entityLabel">String</text><rect height="21" width="36.964569091796875" y="24" x="38.09375" class="er attributeBoxOdd"/><text style="dominant-baseline: middle; font-size: 10.2px;" transform="translate(43.09375,34.5)" y="0" x="0" id="text-entity-teachers-3e01bf78-e991-4682-a740-ce4e43138584-attr-1-name" class="er entityLabel">id</text><rect height="21" width="24.941680908203125" y="24" x="75.05831909179688" class="er attributeBoxOdd"/><text style="dominant-baseline: middle; font-size: 10.2px;" transform="translate(80.05831909179688,34.5)" y="0" x="0" id="text-entity-teachers-3e01bf78-e991-4682-a740-ce4e43138584-attr-1-key" class="er entityLabel">PK</text><rect height="21" width="38.09375" y="45" x="0" class="er attributeBoxEven"/><text style="dominant-baseline: middle; font-size: 10.2px;" transform="translate(5,55.5)" y="0" x="0" id="text-entity-teachers-3e01bf78-e991-4682-a740-ce4e43138584-attr-2-type" class="er entityLabel">String</text><rect height="21" width="36.964569091796875" y="45" x="38.09375" class="er attributeBoxEven"/><text style="dominant-baseline: middle; font-size: 10.2px;" transform="translate(43.09375,55.5)" y="0" x="0" id="text-entity-teachers-3e01bf78-e991-4682-a740-ce4e43138584-attr-2-name" class="er entityLabel">name</text><rect height="21" width="24.941680908203125" y="45" x="75.05831909179688" class="er attributeBoxEven"/><text style="dominant-baseline: middle; font-size: 10.2px;" transform="translate(80.05831909179688,55.5)" y="0" x="0" id="text-entity-teachers-3e01bf78-e991-4682-a740-ce4e43138584-attr-2-key" class="er entityLabel"/></g><g transform="translate(302.642578125,196.5 )" id="entity-modules-a1ea2dd7-8081-47cc-bb55-dee8dd0f99b4"><rect height="108" width="137.18936157226562" y="0" x="0" class="er entityBox"/><text style="dominant-baseline: middle; text-anchor: middle; font-size: 12px;" transform="translate(68.59468078613281,12)" y="0" x="0" id="text-entity-modules-a1ea2dd7-8081-47cc-bb55-dee8dd0f99b4" class="er entityLabel">modules</text><rect height="21" width="54.113128662109375" y="24" x="0" class="er attributeBoxOdd"/><text style="dominant-baseline: middle; font-size: 10.2px;" transform="translate(5,34.5)" y="0" x="0" id="text-entity-modules-a1ea2dd7-8081-47cc-bb55-dee8dd0f99b4-attr-1-type" class="er entityLabel">String</text><rect height="21" width="59.28125" y="24" x="54.113128662109375" class="er attributeBoxOdd"/><text style="dominant-baseline: middle; font-size: 10.2px;" transform="translate(59.113128662109375,34.5)" y="0" x="0" id="text-entity-modules-a1ea2dd7-8081-47cc-bb55-dee8dd0f99b4-attr-1-name" class="er entityLabel">id</text><rect height="21" width="23.79498291015625" y="24" x="113.39437866210938" class="er attributeBoxOdd"/><text style="dominant-baseline: middle; font-size: 10.2px;" transform="translate(118.39437866210938,34.5)" y="0" x="0" id="text-entity-modules-a1ea2dd7-8081-47cc-bb55-dee8dd0f99b4-attr-1-key" class="er entityLabel">PK</text><rect height="21" width="54.113128662109375" y="45" x="0" class="er attributeBoxEven"/><text style="dominant-baseline: middle; font-size: 10.2px;" transform="translate(5,55.5)" y="0" x="0" id="text-entity-modules-a1ea2dd7-8081-47cc-bb55-dee8dd0f99b4-attr-2-type" class="er entityLabel">String</text><rect height="21" width="59.28125" y="45" x="54.113128662109375" class="er attributeBoxEven"/><text style="dominant-baseline: middle; font-size: 10.2px;" transform="translate(59.113128662109375,55.5)" y="0" x="0" id="text-entity-modules-a1ea2dd7-8081-47cc-bb55-dee8dd0f99b4-attr-2-name" class="er entityLabel">name</text><rect height="21" width="23.79498291015625" y="45" x="113.39437866210938" class="er attributeBoxEven"/><text style="dominant-baseline: middle; font-size: 10.2px;" transform="translate(118.39437866210938,55.5)" y="0" x="0" id="text-entity-modules-a1ea2dd7-8081-47cc-bb55-dee8dd0f99b4-attr-2-key" class="er entityLabel"/><rect height="21" width="54.113128662109375" y="66" x="0" class="er attributeBoxOdd"/><text style="dominant-baseline: middle; font-size: 10.2px;" transform="translate(5,76.5)" y="0" x="0" id="text-entity-modules-a1ea2dd7-8081-47cc-bb55-dee8dd0f99b4-attr-3-type" class="er entityLabel">String</text><rect height="21" width="59.28125" y="66" x="54.113128662109375" class="er attributeBoxOdd"/><text style="dominant-baseline: middle; font-size: 10.2px;" transform="translate(59.113128662109375,76.5)" y="0" x="0" id="text-entity-modules-a1ea2dd7-8081-47cc-bb55-dee8dd0f99b4-attr-3-name" class="er entityLabel">description</text><rect height="21" width="23.79498291015625" y="66" x="113.39437866210938" class="er attributeBoxOdd"/><text style="dominant-baseline: middle; font-size: 10.2px;" transform="translate(118.39437866210938,76.5)" y="0" x="0" id="text-entity-modules-a1ea2dd7-8081-47cc-bb55-dee8dd0f99b4-attr-3-key" class="er entityLabel"/><rect height="21" width="54.113128662109375" y="87" x="0" class="er attributeBoxEven"/><text style="dominant-baseline: middle; font-size: 10.2px;" transform="translate(5,97.5)" y="0" x="0" id="text-entity-modules-a1ea2dd7-8081-47cc-bb55-dee8dd0f99b4-attr-4-type" class="er entityLabel">DateTime</text><rect height="21" width="59.28125" y="87" x="54.113128662109375" class="er attributeBoxEven"/><text style="dominant-baseline: middle; font-size: 10.2px;" transform="translate(59.113128662109375,97.5)" y="0" x="0" id="text-entity-modules-a1ea2dd7-8081-47cc-bb55-dee8dd0f99b4-attr-4-name" class="er entityLabel">created_at</text><rect height="21" width="23.79498291015625" y="87" x="113.39437866210938" class="er attributeBoxEven"/><text style="dominant-baseline: middle; font-size: 10.2px;" transform="translate(118.39437866210938,97.5)" y="0" x="0" id="text-entity-modules-a1ea2dd7-8081-47cc-bb55-dee8dd0f99b4-attr-4-key" class="er entityLabel"/></g><g transform="translate(539.8319396972656,217.5 )" id="entity-authors-c00ad208-a129-4434-9c36-47a19dd56cb1"><rect height="66" width="100" y="0" x="0" class="er entityBox"/><text style="dominant-baseline: middle; text-anchor: middle; font-size: 12px;" transform="translate(50,12)" y="0" x="0" id="text-entity-authors-c00ad208-a129-4434-9c36-47a19dd56cb1" class="er entityLabel">authors</text><rect height="21" width="38.09375" y="24" x="0" class="er attributeBoxOdd"/><text style="dominant-baseline: middle; font-size: 10.2px;" transform="translate(5,34.5)" y="0" x="0" id="text-entity-authors-c00ad208-a129-4434-9c36-47a19dd56cb1-attr-1-type" class="er entityLabel">String</text><rect height="21" width="36.964569091796875" y="24" x="38.09375" class="er attributeBoxOdd"/><text style="dominant-baseline: middle; font-size: 10.2px;" transform="translate(43.09375,34.5)" y="0" x="0" id="text-entity-authors-c00ad208-a129-4434-9c36-47a19dd56cb1-attr-1-name" class="er entityLabel">id</text><rect height="21" width="24.941680908203125" y="24" x="75.05831909179688" class="er attributeBoxOdd"/><text style="dominant-baseline: middle; font-size: 10.2px;" transform="translate(80.05831909179688,34.5)" y="0" x="0" id="text-entity-authors-c00ad208-a129-4434-9c36-47a19dd56cb1-attr-1-key" class="er entityLabel">PK</text><rect height="21" width="38.09375" y="45" x="0" class="er attributeBoxEven"/><text style="dominant-baseline: middle; font-size: 10.2px;" transform="translate(5,55.5)" y="0" x="0" id="text-entity-authors-c00ad208-a129-4434-9c36-47a19dd56cb1-attr-2-type" class="er entityLabel">String</text><rect height="21" width="36.964569091796875" y="45" x="38.09375" class="er attributeBoxEven"/><text style="dominant-baseline: middle; font-size: 10.2px;" transform="translate(43.09375,55.5)" y="0" x="0" id="text-entity-authors-c00ad208-a129-4434-9c36-47a19dd56cb1-attr-2-name" class="er entityLabel">name</text><rect height="21" width="24.941680908203125" y="45" x="75.05831909179688" class="er attributeBoxEven"/><text style="dominant-baseline: middle; font-size: 10.2px;" transform="translate(80.05831909179688,55.5)" y="0" x="0" id="text-entity-authors-c00ad208-a129-4434-9c36-47a19dd56cb1-attr-2-key" class="er entityLabel"/></g><g transform="translate(539.8319396972656,20 )" id="entity-books-978554ce-a8a5-4478-8bfc-9c043fb1f5f0"><rect height="66" width="100" y="0" x="0" class="er entityBox"/><text style="dominant-baseline: middle; text-anchor: middle; font-size: 12px;" transform="translate(50,12)" y="0" x="0" id="text-entity-books-978554ce-a8a5-4478-8bfc-9c043fb1f5f0" class="er entityLabel">books</text><rect height="21" width="38.09375" y="24" x="0" class="er attributeBoxOdd"/><text style="dominant-baseline: middle; font-size: 10.2px;" transform="translate(5,34.5)" y="0" x="0" id="text-entity-books-978554ce-a8a5-4478-8bfc-9c043fb1f5f0-attr-1-type" class="er entityLabel">String</text><rect height="21" width="36.964569091796875" y="24" x="38.09375" class="er attributeBoxOdd"/><text style="dominant-baseline: middle; font-size: 10.2px;" transform="translate(43.09375,34.5)" y="0" x="0" id="text-entity-books-978554ce-a8a5-4478-8bfc-9c043fb1f5f0-attr-1-name" class="er entityLabel">id</text><rect height="21" width="24.941680908203125" y="24" x="75.05831909179688" class="er attributeBoxOdd"/><text style="dominant-baseline: middle; font-size: 10.2px;" transform="translate(80.05831909179688,34.5)" y="0" x="0" id="text-entity-books-978554ce-a8a5-4478-8bfc-9c043fb1f5f0-attr-1-key" class="er entityLabel">PK</text><rect height="21" width="38.09375" y="45" x="0" class="er attributeBoxEven"/><text style="dominant-baseline: middle; font-size: 10.2px;" transform="translate(5,55.5)" y="0" x="0" id="text-entity-books-978554ce-a8a5-4478-8bfc-9c043fb1f5f0-attr-2-type" class="er entityLabel">String</text><rect height="21" width="36.964569091796875" y="45" x="38.09375" class="er attributeBoxEven"/><text style="dominant-baseline: middle; font-size: 10.2px;" transform="translate(43.09375,55.5)" y="0" x="0" id="text-entity-books-978554ce-a8a5-4478-8bfc-9c043fb1f5f0-attr-2-name" class="er entityLabel">name</text><rect height="21" width="24.941680908203125" y="45" x="75.05831909179688" class="er attributeBoxEven"/><text style="dominant-baseline: middle; font-size: 10.2px;" transform="translate(80.05831909179688,55.5)" y="0" x="0" id="text-entity-books-978554ce-a8a5-4478-8bfc-9c043fb1f5f0-attr-2-key" class="er entityLabel"/></g><g transform="translate(173.16947174072266,20 )" id="entity-coursesmodules-184f8e02-7fe5-4dfe-b240-c1500a9a95d9"><rect height="66" width="136.2196044921875" y="0" x="0" class="er entityBox"/><text style="dominant-baseline: middle; text-anchor: middle; font-size: 12px;" transform="translate(68.10980224609375,12)" y="0" x="0" id="text-entity-coursesmodules-184f8e02-7fe5-4dfe-b240-c1500a9a95d9" class="er entityLabel">courses_modules</text><rect height="21" width="54.113128662109375" y="24" x="0" class="er attributeBoxOdd"/><text style="dominant-baseline: middle; font-size: 10.2px;" transform="translate(5,34.5)" y="0" x="0" id="text-entity-coursesmodules-184f8e02-7fe5-4dfe-b240-c1500a9a95d9-attr-1-type" class="er entityLabel">String</text><rect height="21" width="58.311492919921875" y="24" x="54.113128662109375" class="er attributeBoxOdd"/><text style="dominant-baseline: middle; font-size: 10.2px;" transform="translate(59.113128662109375,34.5)" y="0" x="0" id="text-entity-coursesmodules-184f8e02-7fe5-4dfe-b240-c1500a9a95d9-attr-1-name" class="er entityLabel">id</text><rect height="21" width="23.79498291015625" y="24" x="112.42462158203125" class="er attributeBoxOdd"/><text style="dominant-baseline: middle; font-size: 10.2px;" transform="translate(117.42462158203125,34.5)" y="0" x="0" id="text-entity-coursesmodules-184f8e02-7fe5-4dfe-b240-c1500a9a95d9-attr-1-key" class="er entityLabel">PK</text><rect height="21" width="54.113128662109375" y="45" x="0" class="er attributeBoxEven"/><text style="dominant-baseline: middle; font-size: 10.2px;" transform="translate(5,55.5)" y="0" x="0" id="text-entity-coursesmodules-184f8e02-7fe5-4dfe-b240-c1500a9a95d9-attr-2-type" class="er entityLabel">DateTime</text><rect height="21" width="58.311492919921875" y="45" x="54.113128662109375" class="er attributeBoxEven"/><text style="dominant-baseline: middle; font-size: 10.2px;" transform="translate(59.113128662109375,55.5)" y="0" x="0" id="text-entity-coursesmodules-184f8e02-7fe5-4dfe-b240-c1500a9a95d9-attr-2-name" class="er entityLabel">created_at</text><rect height="21" width="23.79498291015625" y="45" x="112.42462158203125" class="er attributeBoxEven"/><text style="dominant-baseline: middle; font-size: 10.2px;" transform="translate(117.42462158203125,55.5)" y="0" x="0" id="text-entity-coursesmodules-184f8e02-7fe5-4dfe-b240-c1500a9a95d9-attr-2-key" class="er entityLabel"/></g><rect height="14" width="40.03125" y="358" x="91.3056640625" class="er relationshipLabelBox"/><text style="text-anchor: middle; dominant-baseline: middle; font-size: 12px;" y="365" x="111.3212890625" id="rel1" class="er relationshipLabel">teacher</text><rect height="14" width="34.03125" y="144.75" x="572.8162841796875" class="er relationshipLabelBox"/><text style="text-anchor: middle; dominant-baseline: middle; font-size: 12px;" y="151.75" x="589.8319091796875" id="rel2" class="er relationshipLabel">author</text><rect height="14.000007629394531" width="36.34375" y="118.19514846801758" x="116.3114013671875" class="er relationshipLabelBox"/><text style="text-anchor: middle; dominant-baseline: middle; font-size: 12px;" y="125.19515228271484" x="134.4832763671875" id="rel3" class="er relationshipLabel">course</text><rect height="14" width="39.68359375" y="122.11329650878906" x="331.2279968261719" class="er relationshipLabelBox"/><text style="text-anchor: middle; dominant-baseline: middle; font-size: 12px;" y="129.11329650878906" x="351.0697937011719" id="rel4" class="er relationshipLabel">module</text></svg>